<svg version="1.1" id="Layer_1" xmlns="http://www.w3.org/2000/svg" xmlns:xlink="http://www.w3.org/1999/xlink" x="0px" y="0px" viewBox="0 0 23.6 23.9" style="enable-background:new 0 0 23.6 23.9;" xml:space="preserve">
		<style type="text/css">
	#fs3-snapchat {
        fill: #2198dc;
	}
</style>
<g>
	<path id="fs3-snapchat" d="M12,0C5.4-0.1-0.1,5.2-0.2,11.8s5.2,12,11.8,12.1c6.6,0.1,12-5.2,12.1-11.8c0-0.1,0-0.1,0-0.2
		C23.8,5.4,18.5,0,12,0z M16.6,16.2c-0.1,0.1-0.1,0.4-0.2,0.6c-0.1,0.3-0.3,0.2-0.6,0.2c-0.4-0.1-0.8-0.1-1.2,0
		c-0.7,0.1-1.5,1.2-2.8,1.2c-1.4,0-2.1-1.1-2.9-1.2c-0.8-0.1-1.2,0.1-1.5,0.1c-0.2,0-0.3-0.1-0.3-0.2C7,16.6,7,16.3,6.9,16.2
		c-0.5-0.1-1.7-0.3-1.8-0.8c0-0.1,0.1-0.3,0.2-0.3c1.8-0.3,2.9-2.3,2.7-2.7c-0.1-0.3-0.7-0.4-0.9-0.5c-0.6-0.2-0.7-0.5-0.7-0.7
		c0.1-0.3,0.4-0.4,0.6-0.4c0.3,0,0.7,0.3,1.1,0.1C8,10,7.9,8.6,8.2,7.9c0.6-1.4,2-2.1,3.4-2.1s2.8,0.7,3.4,2.1
		c0.3,0.7,0.2,2.1,0.1,3c0.3,0.2,0.8-0.2,1-0.2c0.3,0,0.7,0.2,0.7,0.5s-0.2,0.5-0.7,0.6c-0.2,0.1-0.8,0.2-0.9,0.5
		c-0.2,0.4,1,2.4,2.7,2.7c0.1,0,0.2,0.1,0.2,0.3C18.4,15.9,17.2,16.1,16.6,16.2z"></path>
</g>
</svg>