<svg version="1.1" xmlns="http://www.w3.org/2000/svg" xmlns:xlink="http://www.w3.org/1999/xlink" x="0px" y="0px" viewBox="0 0 23.6 23.9" style="enable-background:new 0 0 23.6 23.9;" xml:space="preserve">
<style type="text/css">
	#fs3-ig {
        fill: #2198dc;
	}
</style>
<path id="fs3-ig" d="M17.1,10.3c0-0.5,0-1-0.1-1.5c-0.1-1.2-1.1-2.1-2.3-2.1c-0.8,0-1.5-0.1-2.3-0.1
	s-1.5,0-2.3,0c-0.5,0-1,0-1.5,0.1C8.2,6.8,7.8,7,7.4,7.3C6.9,7.7,6.6,8.4,6.6,9c0,0.8-0.1,1.5-0.1,2.3s0,1.5,0,2.3
	c0,0.5,0,1,0.1,1.5c0.1,1.2,1.1,2.1,2.3,2.1c0.8,0.1,1.5,0.1,2.3,0.1s1.5,0,2.3,0c0.6,0,1.1,0,1.7-0.1c0.9-0.1,1.6-0.8,1.8-1.6
	c0.1-0.3,0.1-0.6,0.1-0.9c0-0.9,0-1.8,0.1-2.6h0C17.1,11.4,17.1,10.9,17.1,10.3z M11.8,15.3c-1.8,0-3.3-1.5-3.3-3.3c0,0,0,0,0,0
	c0-1.8,1.5-3.3,3.3-3.3c1.8,0.1,3.2,1.6,3.3,3.4C15.1,13.8,13.6,15.3,11.8,15.3C11.8,15.3,11.8,15.3,11.8,15.3L11.8,15.3z M15.2,9.3
	c-0.4,0-0.8-0.3-0.8-0.8c0-0.4,0.3-0.8,0.8-0.8c0.4,0,0.8,0.3,0.8,0.8c0,0,0,0,0,0C16,8.9,15.7,9.3,15.2,9.3
	C15.2,9.3,15.2,9.3,15.2,9.3L15.2,9.3z M11.8,9.8c-1.2,0-2.2,0.9-2.2,2.1c0,1.2,0.9,2.2,2.1,2.2c1.2,0,2.2-0.9,2.2-2.1c0,0,0,0,0,0
	C14,10.8,13,9.8,11.8,9.8C11.8,9.8,11.8,9.8,11.8,9.8L11.8,9.8z M11.8,9.8c-1.2,0-2.2,0.9-2.2,2.1c0,1.2,0.9,2.2,2.1,2.2
	c1.2,0,2.2-0.9,2.2-2.1c0,0,0,0,0,0C14,10.8,13,9.8,11.8,9.8C11.8,9.8,11.8,9.8,11.8,9.8L11.8,9.8z M17.1,10.3c0-0.5,0-1-0.1-1.5
	c-0.1-1.2-1.1-2.1-2.3-2.1c-0.8,0-1.5-0.1-2.3-0.1s-1.5,0-2.3,0c-0.5,0-1,0-1.5,0.1C8.2,6.8,7.8,7,7.4,7.3C6.9,7.7,6.6,8.4,6.6,9
	c0,0.8-0.1,1.5-0.1,2.3s0,1.5,0,2.3c0,0.5,0,1,0.1,1.5c0.1,1.2,1.1,2.1,2.3,2.1c0.8,0.1,1.5,0.1,2.3,0.1s1.5,0,2.3,0
	c0.6,0,1.1,0,1.7-0.1c0.9-0.1,1.6-0.8,1.8-1.6c0.1-0.3,0.1-0.6,0.1-0.9c0-0.9,0-1.8,0.1-2.6h0C17.1,11.4,17.1,10.9,17.1,10.3
	L17.1,10.3z M11.8,15.3c-1.8,0-3.3-1.5-3.3-3.3c0,0,0,0,0,0c0-1.8,1.5-3.3,3.3-3.3c1.8,0.1,3.2,1.6,3.3,3.4
	C15.1,13.8,13.6,15.3,11.8,15.3C11.8,15.3,11.8,15.3,11.8,15.3L11.8,15.3z M15.2,9.3c-0.4,0-0.8-0.3-0.8-0.8c0-0.4,0.3-0.8,0.8-0.8
	c0.4,0,0.8,0.3,0.8,0.8c0,0,0,0,0,0C16,8.9,15.7,9.3,15.2,9.3C15.2,9.3,15.2,9.3,15.2,9.3L15.2,9.3z M11.8,0
	C5.2-0.1-0.2,5.2-0.3,11.8C-0.4,18.4,4.8,23.9,11.5,24c6.6,0.1,12.1-5.2,12.1-11.8c0-0.1,0-0.1,0-0.2C23.7,5.4,18.4,0.1,11.8,0
	L11.8,0z M18.2,14.1c0,0,0,0.1,0,0.1c0,0.5-0.1,1-0.2,1.5c-0.2,1.1-1,2-2,2.4c-0.6,0.2-1.2,0.3-1.8,0.3l-0.4,0H9.7c0,0-0.1,0-0.1,0
	c-0.5,0-1-0.1-1.5-0.2c-1.1-0.2-1.9-1-2.3-2c-0.2-0.6-0.3-1.2-0.3-1.8c0-0.1,0-0.3,0-0.4V9.8c0,0,0-0.1,0-0.1c0-0.5,0.1-1,0.2-1.5
	c0.2-1.1,1-2,2-2.4c0.6-0.2,1.2-0.3,1.8-0.3l0.4,0h4.2c0,0,0.1,0,0.1,0c0.5,0,1,0.1,1.5,0.2c1.1,0.2,1.9,1,2.3,2
	c0.2,0.6,0.3,1.2,0.3,1.8c0,0.1,0,0.3,0,0.4L18.2,14.1L18.2,14.1z"></path>
</svg>