<svg version="1.1" role="presentation" xmlns="http://www.w3.org/2000/svg" xmlns:xlink="http://www.w3.org/1999/xlink" x="0px" y="0px" width="92px" height="60px" viewBox="0 0 92 60" style="enable-background:new 0 0 92 60;" xml:space="preserve">
	 <title>Visit Honda Automobiles homepage</title>
<g id="Footer">
	<g id="Footer_Large_1400px" transform="translate(-631.000000, -588.000000)">
		<g id="Top_lockup" transform="translate(32.000000, 553.000000)">
			<g transform="translate(599.000000, 35.000000)">
				<path id="Fill-3" style="fill-rule:evenodd;clip-rule:evenodd;" d="M65.1,56.8l-3.3,0v-6.1h3.3c2,0,2.6,0.9,2.6,3.1
					C67.7,55.9,67.1,56.8,65.1,56.8 M65.8,48.8H56v1.3l1.2,0.1c0.4,0.1,0.7,0.2,0.7,0.8v5.3c0,0.3-0.1,0.8-0.7,0.9l-1.3,0.2v1.3
					l9.9,0c3.5,0,6.5-1.4,6.5-5S69.4,48.8,65.8,48.8"></path>
				<g id="A" transform="translate(106.882353, 72.537313)">
					<polygon id="Clip-6" style="fill:none;" points="-14.9,-13.9 -14.9,-23.8 -35.2,-23.8 -35.2,-13.9 					"></polygon>
					<path id="Fill-5" style="fill-rule:evenodd;clip-rule:evenodd;" d="M-28.3-18.6l2-3l2.2,3H-28.3z M-16.2-15.3
						c-0.7-0.1-0.9-0.5-1.1-0.8l-5-7c-0.4-0.5-0.6-0.7-1.1-0.7h-8.2v1.3l1.9,0.2c0.3,0,0.7,0.4,0.3,0.8l-3.7,5.5
						c-0.1,0.2-0.3,0.5-0.8,0.5l-1.5,0.2v1.3h6.9v-1.3l-1.2-0.1c-0.5,0-0.8-0.4-0.5-0.8l0.5-0.8h6.6l0.5,0.7
						c0.4,0.6-0.1,0.8-0.6,0.9l-1.2,0.1v1.3h9.3v-1.3L-16.2-15.3z"></path>
				</g>
				<path id="Fill-8" style="fill-rule:evenodd;clip-rule:evenodd;" d="M47.5,50.1l1.4,0.2c0.6,0.1,0.7,0.6,0.7,0.9v5l-5.5-6.9
					c-0.2-0.3-0.5-0.4-1-0.4h-7.1v1.3l1.4,0.2c0.6,0.1,0.7,0.6,0.7,0.9v5.2c0,0.3-0.1,0.8-0.7,0.9l-1.4,0.2v1.3h6.6v-1.3l-1.4-0.2
					c-0.6-0.1-0.7-0.6-0.7-0.9v-5l5.5,6.9c0.2,0.3,0.5,0.4,1,0.4h0.1h5v-7.5c0-0.3,0.1-0.8,0.7-0.9l1.4-0.2v-1.3h-6.6V50.1z"></path>
				<g id="O" transform="translate(28.411765, 71.194030)">
					<polygon id="Clip-11" style="fill:none;" points="6.6,-11.6 -9.7,-11.6 -9.7,-23 6.6,-23 					"></polygon>
					<path id="Fill-10" style="fill-rule:evenodd;clip-rule:evenodd;" d="M-1.6-13.6c-2.5,0-3.6-1.1-3.6-3.7c0-2.5,1-3.7,3.6-3.7
						C0.9-21,2-19.9,2-17.3C2-14.8,0.9-13.6-1.6-13.6 M-1.6-23c-6.5,0-8.2,3.1-8.2,5.7c0,2.7,1.7,5.7,8.2,5.7c6.5,0,8.2-3.1,8.2-5.7
						C6.6-20,4.9-23-1.6-23"></path>
				</g>
				<path id="Fill-1" style="fill-rule:evenodd;clip-rule:evenodd;" d="M10.2,50.1l1.4,0.2c0.6,0.1,0.7,0.6,0.7,0.9v1.6H5.9v-1.6
					c0-0.3,0.1-0.8,0.7-0.9L8,50.1v-1.3h-8.4v1.3L1,50.3c0.6,0.1,0.7,0.6,0.7,0.9v5.2c0,0.3-0.1,0.8-0.7,0.9l-1.4,0.2v1.3H8v-1.3
					l-1.4-0.2c-0.6-0.1-0.7-0.6-0.7-0.9v-1.6h6.5v1.6c0,0.3-0.1,0.8-0.7,0.9l-1.4,0.2v1.3h8.4v-1.3l-1.4-0.2
					c-0.6-0.1-0.7-0.6-0.7-0.9v-5.2c0-0.3,0.1-0.8,0.7-0.9l1.4-0.2v-1.3h-8.4V50.1z"></path>
				<g id="emblem" transform="translate(32.470588, 0.000000)">
					<path id="Fill-13" style="fill-rule:evenodd;clip-rule:evenodd;" d="M25.4,3.7c-1.2,5.1-1.6,7.5-2.5,11.2
						c-0.9,3.6-1.6,6.9-2.8,8.5c-1.2,1.6-2.8,2-4,2.1c-0.6,0.1-1,0.1-2.2,0.1c-1.2,0-1.7,0-2.2-0.1c-1.1-0.1-2.7-0.5-4-2.1
						c-1.2-1.6-1.9-4.9-2.8-8.5C4,11.2,3.5,8.8,2.4,3.7c0,0-1.1,0-1.7,0.1C0,3.8-0.5,3.8-1.1,3.9c0,0,0.7,10.6,1,15
						c0.3,4.7,0.9,12.6,1.4,18.6c0,0,1,0.2,2.6,0.2C5.5,37.9,6.3,38,6.3,38c0.7-2.6,1.6-6.3,2.5-7.9c0.8-1.3,2-1.4,2.7-1.5
						c1.1-0.1,2-0.2,2.4-0.2h0h0c0.4,0,1.3,0,2.4,0.2c0.7,0.1,1.9,0.2,2.7,1.5c1,1.6,1.8,5.2,2.5,7.9c0,0,0.7,0,2.4-0.1
						c1.6-0.1,2.6-0.2,2.6-0.2c0.5-6,1.1-13.9,1.4-18.6c0.3-4.5,1-15,1-15c-0.6-0.1-1.1-0.1-1.8-0.2C26.6,3.7,25.4,3.7,25.4,3.7"></path>
					<path id="Fill-15" style="fill-rule:evenodd;clip-rule:evenodd;" d="M35.9,21.7c-0.4,5.5-0.9,8.9-1.5,11.3
						c-0.6,2.1-1.3,3.5-2.4,4.5c-1.8,1.7-4.3,2.1-5.7,2.3c-3.1,0.5-8.4,0.7-12.5,0.7c-4.1,0-9.4-0.2-12.5-0.7
						c-1.4-0.2-3.9-0.6-5.7-2.3c-1.1-1-1.8-2.4-2.4-4.5c-0.7-2.4-1.1-5.7-1.5-11.3c-0.2-3.3-0.2-8.8,0.2-11.7c0.5-4.3,2.6-6.5,7-7.3
						C0.8,2.3,3.6,2,6.2,1.9c2.1-0.1,5.6-0.2,7.5-0.2c1.9,0,5.4,0.1,7.5,0.2c2.6,0.1,5.4,0.4,7.5,0.8c4.4,0.8,6.5,3,7,7.3
						C36,13,36.1,18.4,35.9,21.7 M38.3,10.1c-0.7-6.9-5.1-8.4-9-9.1c-2-0.3-5.4-0.6-7.7-0.7C19.7,0.1,15.1,0,13.7,0
						c-1.4,0-6,0.1-7.9,0.2C3.6,0.3,0.1,0.6-1.9,1c-3.9,0.7-8.3,2.1-9,9.1c-0.2,1.9-0.2,4.4-0.2,7c0.1,4.4,0.4,7.4,0.6,9.4
						c0.1,1.4,0.7,5.7,1.4,7.8c1,3,1.9,3.9,2.9,4.8c1.9,1.6,5.1,2.1,5.8,2.3c3.6,0.7,10.8,0.8,14,0.8c3.2,0,10.4-0.1,14-0.8
						c0.7-0.1,3.8-0.6,5.8-2.3c1.1-0.9,1.9-1.8,2.9-4.8c0.7-2.2,1.3-6.4,1.4-7.8c0.2-2.1,0.6-5,0.6-9.4C38.5,14.4,38.5,12,38.3,10.1
						"></path>
				</g>
			</g>
		</g>
	</g>
</g>
</svg>