<svg version="1.1" xmlns="http://www.w3.org/2000/svg" xmlns:xlink="http://www.w3.org/1999/xlink" x="0px" y="0px" viewBox="0 0 23.6 23.9" style="enable-background:new 0 0 23.6 23.9;" xml:space="preserve">
<style type="text/css">
	#fs3-pinterest {
        	fill: #2198dc;
	}
</style>
<path id="fs3-pinterest" d="M11.8,0C5.2-0.1-0.2,5.2-0.3,11.8c-0.1,6.6,5.2,12,11.8,12.1s12-5.2,12.1-11.8
	c0-0.1,0-0.1,0-0.2C23.7,5.4,18.4,0,11.8,0z M12.8,15c-0.7,0-1.4-0.3-1.9-1c0,0-0.4,1.8-0.5,2.1c-0.3,0.9-0.8,1.8-1.4,2.5
	c0,0-0.1,0.1-0.1,0c0,0,0,0,0-0.1c-0.2-1-0.1-2,0-2.9c0.1-0.6,1-4.2,1-4.2c-0.2-0.4-0.2-0.8-0.2-1.2c-0.1-1,0.5-1.8,1.5-2
	c0.6,0,1,0.4,1,1c0,0,0,0.1,0,0.1c-0.1,0.9-0.4,1.8-0.7,2.7c-0.2,0.6,0.2,1.3,0.9,1.4c0.1,0,0.2,0,0.3,0c1.4,0,2.4-1.9,2.4-4.1
	c0.1-1.6-1.2-2.9-2.8-3c-0.1,0-0.3,0-0.4,0c-2-0.1-3.7,1.5-3.7,3.5c0,0.1,0,0.1,0,0.2c0,0.5,0.2,1.1,0.5,1.5
	c0.1,0.1,0.2,0.3,0.1,0.4c0,0.1-0.1,0.5-0.2,0.6c0,0.1-0.2,0.2-0.3,0.2c0,0-0.1,0-0.1,0c-1.1-0.6-1.7-1.7-1.6-2.9
	c0-2.2,1.8-4.8,5.4-4.8c2.5-0.1,4.7,1.8,4.8,4.3c0,0,0,0.1,0,0.1C16.9,12.7,15.3,15,12.8,15z"></path>
</svg>