<svg version="1.1" xmlns="http://www.w3.org/2000/svg" xmlns:xlink="http://www.w3.org/1999/xlink" x="0px" y="0px" viewBox="0 0 24 24" style="enable-background:new 0 0 24 24;" xml:space="preserve">
<style type="text/css">
	#fs3-linkedin {
        fill: #2198dc;
	}
</style>
<g>
	<path id="fs3-linkedin" d="M12,0C5.4,0,0,5.4,0,12c0,6.6,5.4,12,12,12s12-5.4,12-12C24,5.4,18.6,0,12,0z M8.5,18.3H5.7v-9h2.8V18.3z
		 M7.1,8.1c-0.9,0-1.6-0.7-1.6-1.6c0-0.9,0.7-1.6,1.6-1.6c0.9,0,1.6,0.7,1.6,1.6C8.7,7.4,8,8.1,7.1,8.1z M19,18.3h-2.8v-4.4
		c0-1,0-2.4-1.5-2.4c-1.5,0-1.7,1.1-1.7,2.3v4.5h-2.8v-9H13v1.2h0c0.4-0.7,1.3-1.5,2.6-1.5c2.8,0,3.4,1.9,3.4,4.3V18.3z"></path>
</g>
</svg>