<svg version="1.1" xmlns="http://www.w3.org/2000/svg" xmlns:xlink="http://www.w3.org/1999/xlink" x="0px" y="0px" viewBox="0 0 23.6 23.9" style="enable-background:new 0 0 23.6 23.9;" xml:space="preserve">

<style type="text/css">
	#fs3-twitter {
        	fill: #2198dc;
	}
</style>
<path id="fs3-twitter" d="M11.8,0C5.2-0.1-0.3,5.2-0.3,11.8c-0.1,6.6,5.2,12,11.8,12.1c6.6,0.1,12-5.2,12.1-11.8
	c0-0.1,0-0.1,0-0.2C23.6,5.4,18.4,0.1,11.8,0z M17.1,9.2c0,0.1,0,0.2,0,0.4c0.1,4.3-3.4,7.8-7.6,7.8c0,0-0.1,0-0.1,0
	c-1.5,0-2.9-0.4-4.2-1.2c0.2,0,0.4,0,0.6,0c1.2,0,2.4-0.4,3.4-1.2C8,15,7,14.3,6.7,13.1c0.2,0,0.3,0,0.5,0.1c0.2,0,0.5,0,0.7-0.1
	c-1.3-0.3-2.2-1.4-2.2-2.7v0c0.4,0.2,0.8,0.3,1.2,0.3C5.8,9.9,5.4,8.3,6.1,7c1.4,1.7,3.4,2.8,5.6,2.9c0-0.2-0.1-0.4-0.1-0.6
	c0-1.5,1.2-2.7,2.7-2.8c0,0,0,0,0,0c0.8,0,1.5,0.3,2,0.9c0.6-0.1,1.2-0.3,1.7-0.7c-0.2,0.6-0.6,1.2-1.2,1.5c0.5-0.1,1.1-0.2,1.6-0.4
	C18,8.4,17.6,8.9,17.1,9.2L17.1,9.2z"></path>
</svg>