<svg version="1.1" id="fs3-fb-svg" xmlns="http://www.w3.org/2000/svg" xmlns:xlink="http://www.w3.org/1999/xlink" x="0px" y="0px" viewBox="0 0 25 25" preserveAspectRatio="xMinYMax meet" style="enable-background:new 0 0 25 25;" xml:space="preserve">
<style type="text/css">
	#fs3-fb {
        fill: #2198dc;
	}
</style>
<path id="fs3-fb" d="M12.5,0C5.6,0,0,5.6,0,12.5S5.6,25,12.5,25S25,19.4,25,12.5l0,0C25,5.6,19.4,0,12.5,0z
	 M15.6,12.9h-2v7.2h-3v-7.2H9.1v-2.6h1.4V8.7c-0.1-1.6,1-2.9,2.6-3c0.1,0,0.3,0,0.4,0l2.2,0v2.5h-1.6c-0.3,0-0.6,0.2-0.6,0.6
	c0,0,0,0.1,0,0.1v1.5h2.3L15.6,12.9z"></path>
</svg>