<svg version="1.1" id="Layer_1" xmlns="http://www.w3.org/2000/svg" xmlns:xlink="http://www.w3.org/1999/xlink" x="0px" y="0px" viewBox="0 0 25 25" style="enable-background:new 0 0 25 25;fill: #2198dc;" xml:space="preserve">
<style type="text/css">
	#tiktok{fill:#2198dc;}
</style>
<g id="Symbols">
	<g id="Organism_Footer_Medium_Default">
		<g id="footer">
			<g id="social_icons">
				<g id="TikTok">
					<path id="tiktok" d="M12.5,0C19.4,0,25,5.6,25,12.5S19.4,25,12.5,25S0,19.4,0,12.5S5.6,0,12.5,0L12.5,0z
						 M15.7,3.8h-2.4v12.1c0,1.5-1.3,2.7-2.8,2.6C9,18.5,7.9,17.2,8,15.7c0.1-1.4,1.2-2.4,2.5-2.5c0.1,0,0.2,0,0.3,0l0,0v-2.6h-0.3
						c-2.9,0-5.3,2.3-5.3,5.2s2.3,5.3,5.2,5.3s5.3-2.3,5.3-5.2c0,0,0-0.1,0-0.1l0,0V8.8c0.8,1.3,2.3,2.1,3.8,2.1h0.4l0,0V8
						C17.7,7.8,15.9,6.1,15.7,3.8L15.7,3.8z"></path>
				</g>
			</g>
		</g>
	</g>
</g>
</svg>