<svg version="1.1" xmlns="http://www.w3.org/2000/svg" xmlns:xlink="http://www.w3.org/1999/xlink" x="0px" y="0px" viewBox="0 0 23.6 23.9" style="enable-background:new 0 0 23.6 23.9;" xml:space="preserve">
<style type="text/css">
	#fs3-youtube {
        	fill: #2198dc;
	}
</style>
<path id="fs3-youtube" d="M10.4,13.6l3.6-1.9l-3.6-1.9V13.6z M11.8,0C5.2-0.1-0.2,5.2-0.3,11.8s5.2,12,11.8,12.1
	c6.6,0.1,12-5.2,12.1-11.8c0-0.1,0-0.1,0-0.2C23.7,5.4,18.4,0,11.8,0L11.8,0z M18.4,14.7c0,1.1-0.8,1.9-1.9,1.9H7.1
	c-1.1,0-1.9-0.9-1.9-1.9V9.3c0-1,0.8-1.9,1.9-1.9h9.4c1,0,1.9,0.9,1.9,1.9L18.4,14.7L18.4,14.7z"></path>
</svg>