<svg id="Accord-22-White" viewBox="0 0 353 62" xmlns="http://www.w3.org/2000/svg" role="presentation" aria-hidden="true">
<style type="text/css">
	#Accord-22-White {fill: #FFFFFF;}
	#Accord-22-White .st3{fill:none;stroke:#FFFFFF;stroke-width:2.432;stroke-linecap:round;}
</style>
<g>
	<g transform="translate(1.000000, 1.000000)">
		<g transform="translate(0.000426, -1.000000)">
			<g transform="translate(0.000000, 31.130213)">
				<path d="M276.9,18.4c3.2-0.5,5.4-1.2,7.2-2.2c1.7-0.9,3.1-2.1,4.3-3.8c0.8-1,1.5-2.5,1.8-3.8
					c1.5-5.7-1.4-7.4-8.1-7.7c-1.2-0.1-2.1-0.1-4.4-0.1l-32.2,0l-10.7,29.4h13.8L257.4,6c2.9,0,13.4,0,14.4,0c0.8,0,1.7,0,3,0.1
					c2.4,0.2,2.5,1,2.2,2.6c-0.2,0.9-1,2-1.7,2.7c-1,0.9-2.7,1.5-5.2,1.7c-1.4,0.1-2.2,0.2-3.2,0.2c-0.6,0-0.9,0-1.6,0h-8.1
					c0,0,15.2,15.6,15.3,15.7c1.1,1,1.6,1.2,3.9,1.3c0.3,0,1,0,1.4,0c0.7,0,8,0,10.8,0h0C288.6,30.3,276.8,18.4,276.9,18.4"></path>
				<path d="M48.7,30.3h14.1L63,0.9c0,0-7,0-12.1,0c-2,0-3.6,0-4.2,0c-0.6,0-3.1,0-4.9,0.2
					c-3,0.3-4.6,1.1-7.2,2.9c-0.6,0.4-2.4,1.7-3.1,2.2L0,30.3h12.9l8.7-6.7h27.1L48.7,30.3z M29,17.8l0.1-0.1l11-8.5
					c1.1-0.9,1.8-1.4,2.4-1.8c1.4-1,2.2-1.2,4-1.2h0.8H49l-0.1,11.5v0.1L29,17.8z"></path>
				<g transform="translate(178.280119, 0.000000)">
					<path d="M36.8,19.8c-1.7,3.1-3.1,4.2-7,4.9c-2.4,0.4-4.2,0.5-6.6,0.5c-2.3,0-4.1-0.1-6.1-0.5
						c-3.4-0.6-3.9-1.6-3.1-4.9c0.3-1.4,0.9-3.1,1.5-4.7c0.7-1.7,1.4-3.4,2.2-4.8c1.8-3.2,2.8-4.2,6.9-4.8c2.3-0.4,4.2-0.4,6.6-0.4
						c2.4,0,4.2,0.1,6.1,0.4c3.3,0.5,3.9,1.4,3.1,5c-0.3,1.4-0.9,3-1.5,4.7C38.3,16.7,37.6,18.4,36.8,19.8 M47.1,0.9
						C43.5,0.3,36.7,0,32.5,0c-4.3,0-11.1,0.3-15.2,0.9C10.1,2.1,7.5,3.7,4.7,8.6c-1.1,2-2.1,4.2-2.9,6.4c-0.8,2.2-1.3,4.4-1.6,6.3
						c-0.7,4.8,0.4,7.2,6.9,8.4c3.6,0.7,9.9,1,14.5,1c4.6,0,11.1-0.4,15.2-1c7.5-1.2,9.9-2.7,12.7-7.6c1.1-2,2.1-4.1,2.8-6.3
						c0.8-2.2,1.4-4.4,1.7-6.4C54.9,4.3,53.5,2.1,47.1,0.9"></path>
				</g>
				<path d="M100.8,6c3.5,0,12.2,0,13.7,0c0.9,0,1.2,0,2.1,0c2.6-0.1,3.3-0.5,4.4-2.5
					c0.3-0.5,0.9-1.7,1.3-2.6H98.1c-0.7,0-2.9,0-4.5,0.1c-3.3,0.1-6.6,0.3-9.2,0.8c-4.9,1-6.9,2.8-9.2,6.9c-1.2,2.1-2.2,4.5-3,6.9
					c-0.8,2.4-1.4,4.6-1.5,6.7c-0.1,2.9,1.2,5.3,4.9,6.7c2.9,1.1,6.5,1.4,11.3,1.4c5,0,23,0,23.7,0c0.5,0,1.2,0,2.1,0
					c1.1,0,1.8-0.2,2.3-1.2c0.2-0.4,0.6-1.4,0.8-1.8c0.4-1,0.9-2.5,0.9-2.5c-0.4,0-22.4,0-23.6,0c-2.9,0-4.5,0-6.2-0.5
					c-1.8-0.5-2.4-1.3-2.3-2.9c0.1-2.6,2.4-9.4,4-11.7c1.2-1.8,2.2-2.7,4.6-3.2C95.5,6,98.1,6,100.8,6"></path>
				<path d="M154.1,6c3.5,0,12.2,0,13.7,0c0.9,0,1.2,0,2.1,0c2.6-0.1,3.3-0.5,4.4-2.5
					c0.3-0.5,0.9-1.7,1.3-2.6h-24.3c-0.7,0-2.9,0-4.5,0.1c-3.3,0.1-6.6,0.3-9.2,0.8c-4.9,1-6.9,2.8-9.2,6.9c-1.2,2.1-2.2,4.5-3,6.9
					c-0.8,2.4-1.4,4.6-1.5,6.7c-0.1,2.9,1.2,5.3,4.9,6.7c2.9,1.1,6.5,1.4,11.3,1.4c5,0,23,0,23.7,0c0.5,0,1.1,0,2.1,0
					c1.1,0,1.8-0.2,2.3-1.2c0.2-0.4,0.6-1.4,0.8-1.8c0.4-1,0.9-2.5,0.9-2.5c-0.4,0-22.4,0-23.6,0c-2.9,0-4.4,0-6.2-0.5
					c-1.8-0.5-2.4-1.3-2.3-2.9c0.1-2.6,2.4-9.4,4-11.7c1.2-1.8,2.2-2.7,4.6-3.2C148.7,6,151.4,6,154.1,6"></path>
				<path d="M333.3,21c-1.3,1.8-2.7,2.8-5.2,3.2c-2.4,0.4-4.4,0.5-7.2,0.5h-10.2l6.8-18.8h13
					c2.2,0,3.8,0.1,5.2,0.4c1.5,0.3,2,1.3,1.9,3C337.5,12,335,18.6,333.3,21 M346.7,1.7c-2.9-0.8-7.3-0.9-9.5-0.9
					c-6.7,0-31.6,0-31.6,0l-10.7,29.4c0,0,26.2,0,26.9,0c1.3,0,2.4,0,4-0.1c3.6-0.1,7-0.3,9.8-0.8c5.2-1,8.3-2.8,10.7-6.8
					c1.3-2.1,2.4-4.7,3.3-7.1c0.6-1.8,1.1-3.8,1.4-5.4C351.8,5.2,350.6,2.9,346.7,1.7"></path>
			</g>
			<g transform="translate(0.999574, 0.000000)">
				<path class="st3" d="M348,12.5H207.5 M143.5,12.5H0"></path>
				<path d="M162.8,18c0.7,0,0.9-0.5,0.9-0.8c0-0.3-0.1-0.8-0.9-0.8h-5.5l4.1-4c1.1-1.1,2.1-2.2,2.1-3.9
					c0-2.4-1.9-3.6-4-3.6c-1.8,0-3.2,1-3.8,2.4c-0.1,0.2-0.1,0.4-0.1,0.5c0,0.5,0.4,0.8,0.8,0.8c0.3,0,0.7-0.2,0.9-0.7
					c0.4-1,1.2-1.5,2.2-1.5c1.3,0,2.3,0.9,2.3,2.2c0,1.1-0.6,1.9-1.4,2.7l-4.6,4.7c-0.4,0.4-0.6,0.8-0.6,1.1c0,0.3,0.1,0.9,1.2,0.9
					H162.8z M170.2,18.3c3,0,4.3-3,4.3-6.7c0-3.7-1.3-6.7-4.3-6.7c-3,0-4.4,3-4.4,6.7C165.8,15.4,167.1,18.3,170.2,18.3z
					 M170.2,16.8c-2.1,0-2.6-3.1-2.6-5.2c0-2.1,0.5-5.2,2.6-5.2c2.1,0,2.6,3.1,2.6,5.2C172.7,13.8,172.2,16.8,170.2,16.8z M184.2,18
					c0.7,0,0.9-0.5,0.9-0.8c0-0.3-0.1-0.8-0.9-0.8h-5.5l4.1-4c1.1-1.1,2.1-2.2,2.1-3.9c0-2.4-1.9-3.6-4-3.6c-1.8,0-3.2,1-3.8,2.4
					c-0.1,0.2-0.1,0.4-0.1,0.5c0,0.5,0.4,0.8,0.8,0.8c0.3,0,0.7-0.2,0.9-0.7c0.4-1,1.2-1.5,2.2-1.5c1.3,0,2.3,0.9,2.3,2.2
					c0,1.1-0.6,1.9-1.4,2.7L177,16c-0.4,0.4-0.6,0.8-0.6,1.1c0,0.3,0.1,0.9,1.2,0.9H184.2z M195.3,18c0.7,0,0.9-0.5,0.9-0.8
					c0-0.3-0.1-0.8-0.9-0.8h-5.5l4.1-4c1.1-1.1,2.1-2.2,2.1-3.9c0-2.4-1.9-3.6-4-3.6c-1.8,0-3.2,1-3.8,2.4c-0.1,0.2-0.1,0.4-0.1,0.5
					c0,0.5,0.4,0.8,0.8,0.8c0.3,0,0.7-0.2,0.9-0.7c0.4-1,1.2-1.5,2.2-1.5c1.3,0,2.3,0.9,2.3,2.2c0,1.1-0.6,1.9-1.4,2.7l-4.6,4.7
					c-0.4,0.4-0.6,0.8-0.6,1.1c0,0.3,0.1,0.9,1.2,0.9H195.3z"></path>
			</g>
		</g>
	</g>
</g>
</svg>